<?xml version="1.0" standalone="no"?>
<!DOCTYPE svg PUBLIC "-//W3C//DTD SVG 20010904//EN"
 "http://www.w3.org/TR/2001/REC-SVG-20010904/DTD/svg10.dtd">
<svg version="1.0" xmlns="http://www.w3.org/2000/svg"
 width="526.000000pt" height="526.000000pt" viewBox="0 0 526.000000 526.000000"
 preserveAspectRatio="xMidYMid meet">
<metadata>
Created by potrace 1.14, written by Peter Selinger 2001-2017
</metadata>
<g transform="translate(0.000000,526.000000) scale(0.100000,-0.100000)"
fill="#000000" stroke="none">
<path d="M3490 4907 c-58 -136 -72 -168 -114 -260 -19 -43 -34 -88 -33 -100 2
-17 -3 -21 -19 -19 -21 3 -59 -10 -234 -81 l-85 -35 -98 -123 c-99 -124 -134
-186 -245 -434 -59 -132 -90 -200 -133 -293 -22 -46 -39 -85 -39 -87 0 -1 -22
-51 -49 -109 l-50 -106 -63 29 c-35 16 -97 44 -138 64 -41 19 -119 56 -173 81
-55 25 -100 46 -102 46 -2 0 -50 22 -107 49 -114 54 -129 58 -173 46 -58 -15
-85 -35 -104 -78 -10 -23 -34 -78 -54 -122 -19 -44 -45 -102 -57 -130 -25 -56
-40 -90 -68 -155 -20 -47 -39 -89 -91 -204 -31 -68 -36 -107 -25 -178 5 -30
18 -46 67 -85 50 -39 73 -50 124 -58 66 -11 87 -7 124 22 79 64 90 80 174 267
47 104 90 195 95 201 8 10 24 6 68 -15 31 -16 100 -47 152 -70 52 -23 99 -46
105 -51 5 -5 16 -9 25 -9 8 0 23 -7 33 -14 16 -13 10 -33 -106 -302 -69 -159
-191 -455 -272 -659 -81 -203 -151 -374 -156 -379 -4 -5 -24 0 -46 11 -39 20
-46 24 -281 155 -140 79 -143 81 -220 84 -77 3 -79 2 -128 -35 -70 -53 -121
-133 -129 -205 -6 -55 -4 -61 36 -124 23 -37 45 -68 48 -70 4 -1 47 -26 96
-55 50 -30 180 -107 290 -172 110 -64 216 -128 237 -141 20 -13 64 -34 97 -48
l61 -24 126 43 c70 24 130 47 134 52 4 4 31 64 59 133 56 135 59 142 89 210
11 25 34 82 52 127 22 55 38 83 48 83 15 0 86 -32 397 -180 121 -57 344 -185
357 -204 20 -29 18 -33 -170 -476 -34 -80 -36 -92 -38 -209 l-3 -123 49 -52
c38 -40 64 -57 123 -79 104 -38 149 -31 231 37 78 64 77 63 127 181 23 55 52
123 65 150 12 28 73 169 136 315 l114 265 -57 158 c-31 87 -58 159 -60 160 -2
1 -22 12 -44 23 -47 25 -212 117 -270 151 -22 12 -75 42 -117 65 -81 45 -83
47 -80 120 0 15 58 142 128 282 111 225 144 281 144 247 0 -5 10 -13 22 -17
12 -3 62 -25 112 -49 50 -23 114 -52 141 -65 66 -30 136 -61 215 -98 90 -41
152 -68 173 -75 9 -4 41 2 70 13 l52 20 176 357 176 358 -7 67 c-8 70 -7 69
-96 150 -25 24 -41 28 -111 34 l-81 6 -56 -41 c-59 -44 -54 -35 -218 -379 -22
-46 -43 -82 -48 -80 -75 28 -360 166 -360 174 0 6 31 76 69 155 37 79 90 189
116 244 26 55 66 141 90 190 111 232 126 270 145 348 10 46 21 94 24 107 2 14
10 49 16 79 7 29 9 70 6 91 -10 66 -76 264 -96 292 -16 22 -17 29 -6 35 14 8
227 423 217 423 -3 -1 -21 -20 -38 -43 -83 -107 -199 -254 -216 -272 -11 -11
-24 -32 -29 -47 l-10 -27 -54 36 c-54 36 -54 36 -38 61 13 20 59 143 131 352
8 25 19 53 24 63 6 9 6 17 1 17 -4 0 -19 -19 -32 -42 -12 -24 -62 -108 -111
-188 -48 -80 -90 -157 -94 -171 l-6 -26 -62 21 c-76 25 -72 22 -55 39 8 8 19
39 26 68 60 291 75 358 83 383 19 60 2 32 -41 -67z"/>
</g>
</svg>
